<svg xmlns="http://www.w3.org/2000/svg" xmlns:xlink="http://www.w3.org/1999/xlink" width="500" zoomAndPan="magnify" viewBox="0 0 375 374.999991" height="500" preserveAspectRatio="xMidYMid meet" version="1.0"><defs><g/><clipPath id="b9f6f48b97"><path d="M 27.371094 1.167969 L 347.628906 1.167969 L 347.628906 373.96875 L 27.371094 373.96875 Z M 27.371094 1.167969 " clip-rule="nonzero"/></clipPath><clipPath id="8cfc1af059"><path d="M 187.5 1.167969 L 347.628906 94.335938 L 347.628906 280.664062 L 187.5 373.832031 L 27.371094 280.664062 L 27.371094 94.335938 Z M 187.5 1.167969 " clip-rule="nonzero"/></clipPath><clipPath id="9186bc3347"><path d="M 27.371094 1.171875 L 347.621094 1.171875 L 347.621094 373.824219 L 27.371094 373.824219 Z M 27.371094 1.171875 " clip-rule="nonzero"/></clipPath><clipPath id="a9aba77699"><path d="M 187.496094 1.171875 L 347.621094 94.335938 L 347.621094 280.660156 L 187.496094 373.824219 L 27.371094 280.660156 L 27.371094 94.335938 Z M 187.496094 1.171875 " clip-rule="nonzero"/></clipPath><clipPath id="97c7d47d6a"><path d="M 59 204 L 129.792969 204 L 129.792969 257.496094 L 59 257.496094 Z M 59 204 " clip-rule="nonzero"/></clipPath><clipPath id="42511cb0a2"><path d="M 42.792969 187.746094 L 113 187.746094 L 113 241 L 42.792969 241 Z M 42.792969 187.746094 " clip-rule="nonzero"/></clipPath><clipPath id="93574f0c71"><path d="M 184 170 L 254.417969 170 L 254.417969 222.679688 L 184 222.679688 Z M 184 170 " clip-rule="nonzero"/></clipPath><clipPath id="ae1e1c9e51"><path d="M 183.21875 168.726562 L 246 168.726562 L 246 215 L 183.21875 215 Z M 183.21875 168.726562 " clip-rule="nonzero"/></clipPath><clipPath id="fcca8a705c"><path d="M 183.21875 168.726562 L 238 168.726562 L 238 206 L 183.21875 206 Z M 183.21875 168.726562 " clip-rule="nonzero"/></clipPath><clipPath id="166e34a02c"><path d="M 261 170 L 332.160156 170 L 332.160156 222.679688 L 261 222.679688 Z M 261 170 " clip-rule="nonzero"/></clipPath><clipPath id="9dbd1a81a9"><path d="M 260.960938 168.726562 L 324 168.726562 L 324 215 L 260.960938 215 Z M 260.960938 168.726562 " clip-rule="nonzero"/></clipPath><clipPath id="7b73831d3f"><path d="M 260.960938 168.726562 L 316 168.726562 L 316 206 L 260.960938 206 Z M 260.960938 168.726562 " clip-rule="nonzero"/></clipPath><clipPath id="adf1861960"><path d="M 182 230 L 252.445312 230 L 252.445312 282.75 L 182 282.75 Z M 182 230 " clip-rule="nonzero"/></clipPath><clipPath id="730d7a6972"><path d="M 181.242188 228.800781 L 244 228.800781 L 244 275 L 181.242188 275 Z M 181.242188 228.800781 " clip-rule="nonzero"/></clipPath><clipPath id="a8e0160003"><path d="M 181.242188 228.800781 L 236 228.800781 L 236 266 L 181.242188 266 Z M 181.242188 228.800781 " clip-rule="nonzero"/></clipPath><clipPath id="0be64eeeb1"><path d="M 261 230 L 332.160156 230 L 332.160156 282.75 L 261 282.75 Z M 261 230 " clip-rule="nonzero"/></clipPath><clipPath id="aca197ad7b"><path d="M 260.960938 228.800781 L 324 228.800781 L 324 275 L 260.960938 275 Z M 260.960938 228.800781 " clip-rule="nonzero"/></clipPath><clipPath id="0748105efa"><path d="M 260.960938 228.800781 L 316 228.800781 L 316 266 L 260.960938 266 Z M 260.960938 228.800781 " clip-rule="nonzero"/></clipPath><clipPath id="00850d37ec"><path d="M 142.304688 205.214844 L 168.554688 205.214844 L 168.554688 246.144531 L 142.304688 246.144531 Z M 142.304688 205.214844 " clip-rule="nonzero"/></clipPath></defs><g clip-path="url(#b9f6f48b97)"><g clip-path="url(#8cfc1af059)"><path fill="#ffffff" d="M 27.371094 1.167969 L 347.628906 1.167969 L 347.628906 373.96875 L 27.371094 373.96875 Z M 27.371094 1.167969 " fill-opacity="1" fill-rule="nonzero"/></g></g><g clip-path="url(#9186bc3347)"><g clip-path="url(#a9aba77699)"><path stroke-linecap="butt" transform="matrix(0.75, 0, 0, 0.75, 27.372287, 1.170421)" fill="none" stroke-linejoin="miter" d="M 213.498423 0.00193905 L 426.998437 124.220697 L 426.998437 372.653005 L 213.498423 496.871763 L -0.00159146 372.653005 L -0.00159146 124.220697 Z M 213.498423 0.00193905 " stroke="#000000" stroke-width="8" stroke-opacity="1" stroke-miterlimit="4"/></g></g><g clip-path="url(#97c7d47d6a)"><path fill="#000000" d="M 59.597656 206.210938 L 59.597656 256.007812 C 59.597656 256.027344 59.597656 256.046875 59.609375 256.054688 C 59.609375 256.109375 59.617188 256.164062 59.625 256.230469 C 59.636719 256.265625 59.636719 256.300781 59.644531 256.328125 C 59.65625 256.382812 59.671875 256.429688 59.691406 256.476562 C 59.710938 256.511719 59.71875 256.550781 59.738281 256.585938 C 59.753906 256.632812 59.78125 256.667969 59.800781 256.707031 C 59.828125 256.742188 59.847656 256.777344 59.875 256.824219 C 59.882812 256.84375 59.890625 256.859375 59.910156 256.878906 C 59.929688 256.898438 59.9375 256.90625 59.957031 256.925781 C 59.992188 256.960938 60.019531 257 60.058594 257.027344 C 60.09375 257.054688 60.121094 257.082031 60.15625 257.109375 C 60.195312 257.136719 60.230469 257.164062 60.277344 257.183594 C 60.3125 257.199219 60.347656 257.226562 60.386719 257.246094 C 60.433594 257.265625 60.46875 257.28125 60.515625 257.300781 C 60.550781 257.320312 60.597656 257.328125 60.632812 257.339844 C 60.679688 257.347656 60.726562 257.355469 60.769531 257.367188 C 60.816406 257.375 60.851562 257.375 60.898438 257.375 C 60.925781 257.375 60.945312 257.382812 60.972656 257.382812 L 128.367188 257.382812 C 129.125 257.382812 129.738281 256.769531 129.738281 256.007812 L 129.738281 206.210938 C 129.738281 205.449219 129.125 204.835938 128.367188 204.835938 L 60.972656 204.835938 C 60.222656 204.835938 59.597656 205.449219 59.597656 206.210938 Z M 105.78125 254.632812 L 64.796875 254.632812 L 86.457031 236.730469 C 87.382812 235.960938 88.554688 235.621094 89.753906 235.757812 C 90.949219 235.894531 92.003906 236.5 92.734375 237.453125 Z M 109.230469 254.632812 L 98.972656 241.128906 L 110.253906 231.808594 C 111.175781 231.035156 112.359375 230.699219 113.546875 230.835938 C 114.746094 230.972656 115.796875 231.578125 116.527344 232.53125 L 126.996094 246.320312 L 126.996094 254.632812 Z M 126.996094 207.585938 L 126.996094 241.789062 L 118.695312 230.882812 C 117.515625 229.324219 115.789062 228.339844 113.847656 228.113281 C 111.910156 227.882812 110.007812 228.453125 108.496094 229.699219 L 97.308594 238.9375 L 94.921875 235.792969 C 93.742188 234.234375 92.011719 233.253906 90.074219 233.027344 C 88.132812 232.796875 86.230469 233.367188 84.71875 234.613281 L 62.34375 253.09375 L 62.34375 207.585938 Z M 126.996094 207.585938 " fill-opacity="1" fill-rule="nonzero"/></g><path fill="#000000" d="M 99.613281 224.042969 C 102.640625 224.042969 105.113281 221.566406 105.113281 218.53125 C 105.113281 215.5 102.640625 213.023438 99.613281 213.023438 C 96.585938 213.023438 94.117188 215.5 94.117188 218.53125 C 94.117188 221.566406 96.585938 224.042969 99.613281 224.042969 Z M 99.613281 215.773438 C 101.132812 215.773438 102.367188 217.011719 102.367188 218.53125 C 102.367188 220.054688 101.132812 221.292969 99.613281 221.292969 C 98.09375 221.292969 96.859375 220.054688 96.859375 218.53125 C 96.859375 217.011719 98.09375 215.773438 99.613281 215.773438 Z M 99.613281 215.773438 " fill-opacity="1" fill-rule="nonzero"/><path fill="#000000" d="M 51.183594 197.769531 L 51.183594 247.566406 C 51.183594 248.328125 51.796875 248.941406 52.554688 248.941406 C 53.316406 248.941406 53.925781 248.328125 53.925781 247.566406 L 53.925781 199.144531 L 119.949219 199.144531 C 120.710938 199.144531 121.324219 198.53125 121.324219 197.769531 C 121.324219 197.007812 120.710938 196.394531 119.949219 196.394531 L 52.554688 196.394531 C 51.796875 196.394531 51.183594 197.007812 51.183594 197.769531 Z M 51.183594 197.769531 " fill-opacity="1" fill-rule="nonzero"/><g clip-path="url(#42511cb0a2)"><path fill="#000000" d="M 44.128906 240.496094 C 44.890625 240.496094 45.503906 239.882812 45.503906 239.121094 L 45.503906 190.699219 L 111.523438 190.699219 C 112.285156 190.699219 112.898438 190.085938 112.898438 189.324219 C 112.898438 188.5625 112.285156 187.949219 111.523438 187.949219 L 44.128906 187.949219 C 43.371094 187.949219 42.757812 188.5625 42.757812 189.324219 L 42.757812 239.121094 C 42.757812 239.882812 43.371094 240.496094 44.128906 240.496094 Z M 44.128906 240.496094 " fill-opacity="1" fill-rule="nonzero"/></g><g clip-path="url(#93574f0c71)"><path fill="#000000" d="M 184.226562 171.394531 L 184.226562 221.191406 C 184.226562 221.210938 184.226562 221.226562 184.234375 221.238281 C 184.234375 221.292969 184.242188 221.347656 184.253906 221.410156 C 184.261719 221.449219 184.261719 221.484375 184.269531 221.511719 C 184.28125 221.566406 184.296875 221.613281 184.316406 221.660156 C 184.335938 221.695312 184.34375 221.730469 184.363281 221.769531 C 184.378906 221.8125 184.40625 221.851562 184.425781 221.886719 C 184.453125 221.925781 184.472656 221.960938 184.5 222.007812 C 184.507812 222.023438 184.519531 222.042969 184.535156 222.0625 C 184.554688 222.082031 184.5625 222.089844 184.582031 222.109375 C 184.617188 222.144531 184.644531 222.179688 184.683594 222.207031 C 184.71875 222.234375 184.746094 222.261719 184.78125 222.292969 C 184.820312 222.320312 184.855469 222.347656 184.902344 222.363281 C 184.9375 222.382812 184.976562 222.410156 185.011719 222.429688 C 185.058594 222.445312 185.09375 222.464844 185.140625 222.484375 C 185.175781 222.503906 185.222656 222.511719 185.257812 222.519531 C 185.304688 222.53125 185.351562 222.539062 185.394531 222.546875 C 185.441406 222.558594 185.476562 222.558594 185.523438 222.558594 C 185.550781 222.558594 185.570312 222.566406 185.597656 222.566406 L 252.992188 222.566406 C 253.75 222.566406 254.363281 221.953125 254.363281 221.191406 L 254.363281 171.394531 C 254.363281 170.632812 253.75 170.019531 252.992188 170.019531 L 185.597656 170.019531 C 184.847656 170.019531 184.226562 170.632812 184.226562 171.394531 Z M 230.40625 219.816406 L 189.421875 219.816406 L 211.085938 201.910156 C 212.007812 201.140625 213.179688 200.804688 214.378906 200.941406 C 215.574219 201.078125 216.628906 201.683594 217.359375 202.636719 Z M 233.855469 219.816406 L 223.597656 206.3125 L 234.878906 196.988281 C 235.804688 196.21875 236.984375 195.878906 238.171875 196.015625 C 239.371094 196.15625 240.421875 196.761719 241.15625 197.714844 L 251.621094 211.5 L 251.621094 219.816406 Z M 251.621094 172.769531 L 251.621094 206.972656 L 243.324219 196.0625 C 242.144531 194.503906 240.414062 193.523438 238.472656 193.292969 C 236.535156 193.066406 234.632812 193.632812 233.121094 194.878906 L 221.933594 204.121094 L 219.546875 200.976562 C 218.367188 199.417969 216.636719 198.4375 214.699219 198.207031 C 212.757812 197.980469 210.855469 198.546875 209.347656 199.792969 L 186.96875 218.277344 L 186.96875 172.769531 Z M 251.621094 172.769531 " fill-opacity="1" fill-rule="nonzero"/></g><path fill="#000000" d="M 224.238281 189.222656 C 227.269531 189.222656 229.738281 186.75 229.738281 183.714844 C 229.738281 180.679688 227.269531 178.207031 224.238281 178.207031 C 221.210938 178.207031 218.742188 180.679688 218.742188 183.714844 C 218.742188 186.75 221.210938 189.222656 224.238281 189.222656 Z M 224.238281 180.957031 C 225.757812 180.957031 226.992188 182.191406 226.992188 183.714844 C 226.992188 185.238281 225.757812 186.472656 224.238281 186.472656 C 222.722656 186.472656 221.484375 185.238281 221.484375 183.714844 C 221.484375 182.191406 222.722656 180.957031 224.238281 180.957031 Z M 224.238281 180.957031 " fill-opacity="1" fill-rule="nonzero"/><g clip-path="url(#ae1e1c9e51)"><path fill="#000000" d="M 175.808594 162.949219 L 175.808594 212.746094 C 175.808594 213.507812 176.421875 214.121094 177.179688 214.121094 C 177.941406 214.121094 178.554688 213.507812 178.554688 212.746094 L 178.554688 164.324219 L 244.574219 164.324219 C 245.335938 164.324219 245.949219 163.710938 245.949219 162.949219 C 245.949219 162.191406 245.335938 161.574219 244.574219 161.574219 L 177.179688 161.574219 C 176.421875 161.574219 175.808594 162.191406 175.808594 162.949219 Z M 175.808594 162.949219 " fill-opacity="1" fill-rule="nonzero"/></g><g clip-path="url(#fcca8a705c)"><path fill="#000000" d="M 168.753906 205.679688 C 169.515625 205.679688 170.128906 205.066406 170.128906 204.304688 L 170.128906 155.882812 L 236.152344 155.882812 C 236.910156 155.882812 237.523438 155.269531 237.523438 154.507812 C 237.523438 153.746094 236.910156 153.132812 236.152344 153.132812 L 168.753906 153.132812 C 167.996094 153.132812 167.382812 153.746094 167.382812 154.507812 L 167.382812 204.304688 C 167.382812 205.066406 167.996094 205.679688 168.753906 205.679688 Z M 168.753906 205.679688 " fill-opacity="1" fill-rule="nonzero"/></g><g clip-path="url(#166e34a02c)"><path fill="#000000" d="M 261.96875 171.394531 L 261.96875 221.191406 C 261.96875 221.210938 261.96875 221.226562 261.976562 221.238281 C 261.976562 221.292969 261.984375 221.347656 261.996094 221.410156 C 262.003906 221.449219 262.003906 221.484375 262.011719 221.511719 C 262.023438 221.566406 262.039062 221.613281 262.058594 221.660156 C 262.078125 221.695312 262.085938 221.730469 262.105469 221.769531 C 262.121094 221.8125 262.148438 221.851562 262.167969 221.886719 C 262.195312 221.925781 262.214844 221.960938 262.242188 222.007812 C 262.25 222.023438 262.261719 222.042969 262.277344 222.0625 C 262.296875 222.082031 262.304688 222.089844 262.324219 222.109375 C 262.359375 222.144531 262.386719 222.179688 262.425781 222.207031 C 262.460938 222.234375 262.488281 222.261719 262.523438 222.292969 C 262.5625 222.320312 262.597656 222.347656 262.644531 222.363281 C 262.679688 222.382812 262.71875 222.410156 262.753906 222.429688 C 262.800781 222.445312 262.835938 222.464844 262.882812 222.484375 C 262.917969 222.503906 262.964844 222.511719 263 222.519531 C 263.046875 222.53125 263.09375 222.539062 263.136719 222.546875 C 263.183594 222.558594 263.21875 222.558594 263.265625 222.558594 C 263.292969 222.558594 263.3125 222.566406 263.339844 222.566406 L 330.734375 222.566406 C 331.492188 222.566406 332.105469 221.953125 332.105469 221.191406 L 332.105469 171.394531 C 332.105469 170.632812 331.492188 170.019531 330.734375 170.019531 L 263.339844 170.019531 C 262.589844 170.019531 261.96875 170.632812 261.96875 171.394531 Z M 308.148438 219.816406 L 267.164062 219.816406 L 288.828125 201.910156 C 289.75 201.140625 290.921875 200.804688 292.121094 200.941406 C 293.316406 201.078125 294.371094 201.683594 295.101562 202.636719 Z M 311.597656 219.816406 L 301.339844 206.3125 L 312.621094 196.988281 C 313.546875 196.21875 314.726562 195.878906 315.914062 196.015625 C 317.113281 196.15625 318.164062 196.761719 318.898438 197.714844 L 329.363281 211.5 L 329.363281 219.816406 Z M 329.363281 172.769531 L 329.363281 206.972656 L 321.066406 196.0625 C 319.886719 194.503906 318.15625 193.523438 316.214844 193.292969 C 314.277344 193.066406 312.375 193.632812 310.863281 194.878906 L 299.675781 204.121094 L 297.289062 200.976562 C 296.109375 199.417969 294.378906 198.4375 292.441406 198.207031 C 290.5 197.980469 288.597656 198.546875 287.089844 199.792969 L 264.710938 218.277344 L 264.710938 172.769531 Z M 329.363281 172.769531 " fill-opacity="1" fill-rule="nonzero"/></g><path fill="#000000" d="M 301.980469 189.222656 C 305.007812 189.222656 307.480469 186.75 307.480469 183.714844 C 307.480469 180.679688 305.007812 178.207031 301.980469 178.207031 C 298.953125 178.207031 296.484375 180.679688 296.484375 183.714844 C 296.484375 186.75 298.953125 189.222656 301.980469 189.222656 Z M 301.980469 180.957031 C 303.5 180.957031 304.734375 182.191406 304.734375 183.714844 C 304.734375 185.238281 303.5 186.472656 301.980469 186.472656 C 300.464844 186.472656 299.226562 185.238281 299.226562 183.714844 C 299.226562 182.191406 300.464844 180.957031 301.980469 180.957031 Z M 301.980469 180.957031 " fill-opacity="1" fill-rule="nonzero"/><g clip-path="url(#9dbd1a81a9)"><path fill="#000000" d="M 253.550781 162.949219 L 253.550781 212.746094 C 253.550781 213.507812 254.164062 214.121094 254.921875 214.121094 C 255.683594 214.121094 256.296875 213.507812 256.296875 212.746094 L 256.296875 164.324219 L 322.316406 164.324219 C 323.078125 164.324219 323.691406 163.710938 323.691406 162.949219 C 323.691406 162.191406 323.078125 161.574219 322.316406 161.574219 L 254.921875 161.574219 C 254.164062 161.574219 253.550781 162.191406 253.550781 162.949219 Z M 253.550781 162.949219 " fill-opacity="1" fill-rule="nonzero"/></g><g clip-path="url(#7b73831d3f)"><path fill="#000000" d="M 246.496094 205.679688 C 247.257812 205.679688 247.871094 205.066406 247.871094 204.304688 L 247.871094 155.882812 L 313.894531 155.882812 C 314.652344 155.882812 315.265625 155.269531 315.265625 154.507812 C 315.265625 153.746094 314.652344 153.132812 313.894531 153.132812 L 246.496094 153.132812 C 245.738281 153.132812 245.125 153.746094 245.125 154.507812 L 245.125 204.304688 C 245.125 205.066406 245.738281 205.679688 246.496094 205.679688 Z M 246.496094 205.679688 " fill-opacity="1" fill-rule="nonzero"/></g><g clip-path="url(#adf1861960)"><path fill="#000000" d="M 182.25 231.46875 L 182.25 281.265625 C 182.25 281.28125 182.25 281.300781 182.257812 281.308594 C 182.257812 281.367188 182.269531 281.421875 182.277344 281.484375 C 182.285156 281.519531 182.285156 281.558594 182.296875 281.585938 C 182.304688 281.640625 182.324219 281.6875 182.339844 281.730469 C 182.359375 281.769531 182.371094 281.804688 182.386719 281.84375 C 182.40625 281.886719 182.433594 281.925781 182.453125 281.960938 C 182.480469 281.996094 182.496094 282.035156 182.523438 282.082031 C 182.535156 282.097656 182.542969 282.117188 182.5625 282.136719 C 182.578125 282.152344 182.589844 282.164062 182.605469 282.179688 C 182.644531 282.21875 182.671875 282.253906 182.707031 282.28125 C 182.746094 282.308594 182.773438 282.335938 182.808594 282.363281 C 182.84375 282.390625 182.882812 282.417969 182.925781 282.4375 C 182.964844 282.457031 183 282.484375 183.035156 282.503906 C 183.082031 282.519531 183.121094 282.539062 183.164062 282.558594 C 183.203125 282.574219 183.246094 282.585938 183.285156 282.59375 C 183.328125 282.601562 183.375 282.613281 183.421875 282.621094 C 183.46875 282.628906 183.503906 282.628906 183.550781 282.628906 C 183.578125 282.628906 183.59375 282.640625 183.621094 282.640625 L 251.019531 282.640625 C 251.777344 282.640625 252.390625 282.023438 252.390625 281.265625 L 252.390625 231.46875 C 252.390625 230.707031 251.777344 230.09375 251.019531 230.09375 L 183.621094 230.09375 C 182.871094 230.09375 182.25 230.707031 182.25 231.46875 Z M 228.429688 279.890625 L 187.445312 279.890625 L 209.109375 261.984375 C 210.035156 261.214844 211.203125 260.875 212.402344 261.015625 C 213.601562 261.152344 214.652344 261.757812 215.386719 262.710938 Z M 231.878906 279.890625 L 221.625 266.386719 L 232.902344 257.0625 C 233.828125 256.292969 235.007812 255.953125 236.199219 256.089844 C 237.394531 256.226562 238.449219 256.832031 239.179688 257.785156 L 249.644531 271.574219 L 249.644531 279.890625 Z M 249.644531 232.84375 L 249.644531 267.046875 L 241.347656 256.136719 C 240.167969 254.578125 238.4375 253.597656 236.5 253.367188 C 234.558594 253.140625 232.65625 253.707031 231.148438 254.953125 L 219.960938 264.195312 L 217.570312 261.050781 C 216.390625 259.492188 214.664062 258.511719 212.722656 258.28125 C 210.785156 258.050781 208.882812 258.621094 207.371094 259.867188 L 184.996094 278.347656 L 184.996094 232.84375 Z M 249.644531 232.84375 " fill-opacity="1" fill-rule="nonzero"/></g><path fill="#000000" d="M 222.265625 249.296875 C 225.292969 249.296875 227.761719 246.824219 227.761719 243.789062 C 227.761719 240.753906 225.292969 238.277344 222.265625 238.277344 C 219.238281 238.277344 216.765625 240.753906 216.765625 243.789062 C 216.765625 246.824219 219.238281 249.296875 222.265625 249.296875 Z M 222.265625 241.027344 C 223.785156 241.027344 225.019531 242.265625 225.019531 243.789062 C 225.019531 245.308594 223.785156 246.546875 222.265625 246.546875 C 220.746094 246.546875 219.511719 245.308594 219.511719 243.789062 C 219.511719 242.265625 220.746094 241.027344 222.265625 241.027344 Z M 222.265625 241.027344 " fill-opacity="1" fill-rule="nonzero"/><g clip-path="url(#730d7a6972)"><path fill="#000000" d="M 173.832031 223.023438 L 173.832031 272.820312 C 173.832031 273.582031 174.445312 274.195312 175.207031 274.195312 C 175.964844 274.195312 176.578125 273.582031 176.578125 272.820312 L 176.578125 224.398438 L 242.601562 224.398438 C 243.359375 224.398438 243.972656 223.785156 243.972656 223.023438 C 243.972656 222.261719 243.359375 221.648438 242.601562 221.648438 L 175.207031 221.648438 C 174.445312 221.648438 173.832031 222.261719 173.832031 223.023438 Z M 173.832031 223.023438 " fill-opacity="1" fill-rule="nonzero"/></g><g clip-path="url(#a8e0160003)"><path fill="#000000" d="M 166.78125 265.753906 C 167.539062 265.753906 168.152344 265.140625 168.152344 264.378906 L 168.152344 215.957031 L 234.175781 215.957031 C 234.933594 215.957031 235.546875 215.34375 235.546875 214.582031 C 235.546875 213.820312 234.933594 213.207031 234.175781 213.207031 L 166.78125 213.207031 C 166.019531 213.207031 165.410156 213.820312 165.410156 214.582031 L 165.410156 264.378906 C 165.410156 265.140625 166.019531 265.753906 166.78125 265.753906 Z M 166.78125 265.753906 " fill-opacity="1" fill-rule="nonzero"/></g><g clip-path="url(#0be64eeeb1)"><path fill="#000000" d="M 261.96875 231.46875 L 261.96875 281.265625 C 261.96875 281.28125 261.96875 281.300781 261.976562 281.308594 C 261.976562 281.367188 261.984375 281.421875 261.996094 281.484375 C 262.003906 281.519531 262.003906 281.558594 262.011719 281.585938 C 262.023438 281.640625 262.039062 281.6875 262.058594 281.730469 C 262.078125 281.769531 262.085938 281.804688 262.105469 281.84375 C 262.121094 281.886719 262.148438 281.925781 262.167969 281.960938 C 262.195312 281.996094 262.214844 282.035156 262.242188 282.082031 C 262.25 282.097656 262.261719 282.117188 262.277344 282.136719 C 262.296875 282.152344 262.304688 282.164062 262.324219 282.179688 C 262.359375 282.21875 262.386719 282.253906 262.425781 282.28125 C 262.460938 282.308594 262.488281 282.335938 262.523438 282.363281 C 262.5625 282.390625 262.597656 282.417969 262.644531 282.4375 C 262.679688 282.457031 262.71875 282.484375 262.753906 282.503906 C 262.800781 282.519531 262.835938 282.539062 262.882812 282.558594 C 262.917969 282.574219 262.964844 282.585938 263 282.59375 C 263.046875 282.601562 263.09375 282.613281 263.136719 282.621094 C 263.183594 282.628906 263.21875 282.628906 263.265625 282.628906 C 263.292969 282.628906 263.3125 282.640625 263.339844 282.640625 L 330.734375 282.640625 C 331.492188 282.640625 332.105469 282.023438 332.105469 281.265625 L 332.105469 231.46875 C 332.105469 230.707031 331.492188 230.09375 330.734375 230.09375 L 263.339844 230.09375 C 262.589844 230.09375 261.96875 230.707031 261.96875 231.46875 Z M 308.148438 279.890625 L 267.164062 279.890625 L 288.828125 261.984375 C 289.75 261.214844 290.921875 260.875 292.121094 261.015625 C 293.316406 261.152344 294.371094 261.757812 295.101562 262.710938 Z M 311.597656 279.890625 L 301.339844 266.386719 L 312.621094 257.0625 C 313.546875 256.292969 314.726562 255.953125 315.914062 256.089844 C 317.113281 256.226562 318.164062 256.832031 318.898438 257.785156 L 329.363281 271.574219 L 329.363281 279.890625 Z M 329.363281 232.84375 L 329.363281 267.046875 L 321.066406 256.136719 C 319.886719 254.578125 318.15625 253.597656 316.214844 253.367188 C 314.277344 253.140625 312.375 253.707031 310.863281 254.953125 L 299.675781 264.195312 L 297.289062 261.050781 C 296.109375 259.492188 294.378906 258.511719 292.441406 258.28125 C 290.5 258.050781 288.597656 258.621094 287.089844 259.867188 L 264.710938 278.347656 L 264.710938 232.84375 Z M 329.363281 232.84375 " fill-opacity="1" fill-rule="nonzero"/></g><path fill="#000000" d="M 301.980469 249.296875 C 305.007812 249.296875 307.480469 246.824219 307.480469 243.789062 C 307.480469 240.753906 305.007812 238.277344 301.980469 238.277344 C 298.953125 238.277344 296.484375 240.753906 296.484375 243.789062 C 296.484375 246.824219 298.953125 249.296875 301.980469 249.296875 Z M 301.980469 241.027344 C 303.5 241.027344 304.734375 242.265625 304.734375 243.789062 C 304.734375 245.308594 303.5 246.546875 301.980469 246.546875 C 300.464844 246.546875 299.226562 245.308594 299.226562 243.789062 C 299.226562 242.265625 300.464844 241.027344 301.980469 241.027344 Z M 301.980469 241.027344 " fill-opacity="1" fill-rule="nonzero"/><g clip-path="url(#aca197ad7b)"><path fill="#000000" d="M 253.550781 223.023438 L 253.550781 272.820312 C 253.550781 273.582031 254.164062 274.195312 254.921875 274.195312 C 255.683594 274.195312 256.296875 273.582031 256.296875 272.820312 L 256.296875 224.398438 L 322.316406 224.398438 C 323.078125 224.398438 323.691406 223.785156 323.691406 223.023438 C 323.691406 222.261719 323.078125 221.648438 322.316406 221.648438 L 254.921875 221.648438 C 254.164062 221.648438 253.550781 222.261719 253.550781 223.023438 Z M 253.550781 223.023438 " fill-opacity="1" fill-rule="nonzero"/></g><g clip-path="url(#0748105efa)"><path fill="#000000" d="M 246.496094 265.753906 C 247.257812 265.753906 247.871094 265.140625 247.871094 264.378906 L 247.871094 215.957031 L 313.894531 215.957031 C 314.652344 215.957031 315.265625 215.34375 315.265625 214.582031 C 315.265625 213.820312 314.652344 213.207031 313.894531 213.207031 L 246.496094 213.207031 C 245.738281 213.207031 245.125 213.820312 245.125 214.582031 L 245.125 264.378906 C 245.125 265.140625 245.738281 265.753906 246.496094 265.753906 Z M 246.496094 265.753906 " fill-opacity="1" fill-rule="nonzero"/></g><g clip-path="url(#00850d37ec)"><path fill="#000000" d="M 168.035156 224.121094 L 145.617188 205.691406 C 143.929688 204.300781 141.550781 206.210938 142.539062 208.160156 L 147.15625 224.765625 C 147.449219 225.339844 147.449219 226.015625 147.15625 226.589844 L 142.539062 243.199219 C 141.550781 245.148438 143.929688 247.058594 145.617188 245.671875 L 168.035156 227.238281 C 169.015625 226.429688 169.015625 224.929688 168.035156 224.121094 " fill-opacity="1" fill-rule="nonzero"/></g><g fill="#000000" fill-opacity="1"><g transform="translate(54.832033, 139.370441)"><g><path d="M 19.265625 -26.171875 C 33.859375 -26.210938 41.238281 -26.210938 41.40625 -26.171875 C 41.445312 -26.128906 41.445312 -21.734375 41.40625 -12.984375 L 41.40625 0 L 32.640625 0 L 32.640625 -20.09375 C 32.640625 -20.132812 31.570312 -20.15625 29.4375 -20.15625 L 26.296875 -20.15625 L 26.296875 -10.046875 C 26.296875 -7.273438 26.285156 -4.9375 26.265625 -3.03125 C 26.242188 -1.132812 26.234375 -0.144531 26.234375 -0.0625 C 26.234375 -0.0195312 24.765625 0 21.828125 0 L 17.46875 0 L 17.46875 -20.15625 L 11.265625 -20.15625 L 11.265625 -19.96875 C 11.222656 -19.84375 11.203125 -16.578125 11.203125 -10.171875 C 11.285156 -3.898438 11.285156 -0.640625 11.203125 -0.390625 L 11.203125 0 L 6.90625 0 C 4.050781 0 2.625 -0.0195312 2.625 -0.0625 C 2.582031 -0.101562 2.5625 -4.4375 2.5625 -13.0625 C 2.5625 -21.757812 2.582031 -26.128906 2.625 -26.171875 Z M 19.265625 -26.171875 "/></g></g></g><g fill="#000000" fill-opacity="1"><g transform="translate(98.861331, 139.370441)"><g><path d="M 2.5625 -19.140625 C 2.5625 -22.335938 2.5625 -25.300781 2.5625 -28.03125 C 2.5625 -30.757812 2.5625 -33.132812 2.5625 -35.15625 C 2.5625 -37.1875 2.570312 -38.773438 2.59375 -39.921875 C 2.613281 -41.078125 2.625 -41.65625 2.625 -41.65625 L 11.390625 -41.65625 L 11.390625 -16.515625 L 12.421875 -17.53125 C 13.566406 -18.6875 14.800781 -19.925781 16.125 -21.25 C 17.445312 -22.570312 18.859375 -23.976562 20.359375 -25.46875 L 21.0625 -26.109375 L 30.59375 -26.109375 L 30.265625 -25.859375 C 29.753906 -25.390625 29.242188 -24.910156 28.734375 -24.421875 C 28.222656 -23.929688 27.710938 -23.425781 27.203125 -22.90625 C 27.160156 -22.90625 26.835938 -22.609375 26.234375 -22.015625 L 24.0625 -19.84375 C 22.0625 -17.875 20.695312 -16.515625 19.96875 -15.765625 C 19.238281 -15.023438 18.894531 -14.65625 18.9375 -14.65625 C 18.988281 -14.613281 19.066406 -14.535156 19.171875 -14.421875 C 19.273438 -14.316406 19.410156 -14.160156 19.578125 -13.953125 C 19.671875 -13.734375 19.820312 -13.492188 20.03125 -13.234375 C 20.25 -12.984375 20.421875 -12.796875 20.546875 -12.671875 C 20.929688 -12.242188 21.1875 -11.898438 21.3125 -11.640625 C 21.65625 -11.347656 21.847656 -11.09375 21.890625 -10.875 C 21.972656 -10.789062 22.035156 -10.726562 22.078125 -10.6875 C 22.203125 -10.644531 22.375 -10.429688 22.59375 -10.046875 L 22.90625 -9.734375 C 22.945312 -9.554688 23.015625 -9.46875 23.109375 -9.46875 C 23.234375 -9.34375 23.53125 -8.957031 24 -8.3125 C 24.207031 -8.144531 24.515625 -7.816406 24.921875 -7.328125 C 25.328125 -6.835938 25.570312 -6.484375 25.65625 -6.265625 C 25.65625 -6.179688 26 -5.734375 26.6875 -4.921875 C 26.988281 -4.585938 27.222656 -4.3125 27.390625 -4.09375 C 27.554688 -3.882812 27.664062 -3.734375 27.71875 -3.640625 C 27.757812 -3.597656 27.8125 -3.535156 27.875 -3.453125 C 27.9375 -3.367188 28.007812 -3.285156 28.09375 -3.203125 C 28.476562 -2.816406 28.710938 -2.5625 28.796875 -2.4375 C 28.878906 -2.257812 29.007812 -2.085938 29.1875 -1.921875 C 29.394531 -1.703125 29.5 -1.582031 29.5 -1.5625 C 29.5 -1.539062 29.539062 -1.46875 29.625 -1.34375 C 30.3125 -0.53125 30.632812 -0.101562 30.59375 -0.0625 C 30.550781 -0.0195312 29.015625 0 25.984375 0 L 21.4375 0 L 21.1875 -0.3125 C 20.882812 -0.613281 20.625 -0.898438 20.40625 -1.171875 C 20.195312 -1.453125 20.007812 -1.703125 19.84375 -1.921875 C 19.707031 -2.046875 19.515625 -2.28125 19.265625 -2.625 C 19.179688 -2.707031 19.082031 -2.8125 18.96875 -2.9375 C 18.863281 -3.070312 18.726562 -3.242188 18.5625 -3.453125 C 18.476562 -3.628906 18.367188 -3.78125 18.234375 -3.90625 C 18.109375 -4.03125 17.984375 -4.179688 17.859375 -4.359375 C 17.640625 -4.566406 17.390625 -4.863281 17.109375 -5.25 C 16.835938 -5.632812 16.488281 -6.082031 16.0625 -6.59375 C 15.507812 -7.269531 14.960938 -7.945312 14.421875 -8.625 C 13.890625 -9.3125 13.347656 -10 12.796875 -10.6875 C 12.753906 -10.726562 12.722656 -10.769531 12.703125 -10.8125 C 12.679688 -10.851562 12.628906 -10.894531 12.546875 -10.9375 L 12.15625 -11.453125 C 12.070312 -11.492188 12.019531 -11.535156 12 -11.578125 C 11.976562 -11.617188 11.945312 -11.664062 11.90625 -11.71875 C 11.601562 -12.050781 11.453125 -12.21875 11.453125 -12.21875 C 11.410156 -12.175781 11.390625 -10.148438 11.390625 -6.140625 C 11.390625 -2.171875 11.367188 -0.164062 11.328125 -0.125 C 11.242188 -0.0390625 9.769531 0 6.90625 0 L 2.5625 0 Z M 2.5625 -19.140625 "/></g></g></g><g fill="#000000" fill-opacity="1"><g transform="translate(132.075287, 139.370441)"><g><path d="M 2.5625 -14.140625 C 2.5625 -22.078125 2.582031 -26.066406 2.625 -26.109375 C 2.625 -26.191406 7.335938 -26.191406 16.765625 -26.109375 L 30.84375 -26.109375 L 30.84375 -4.671875 L 30.90625 12.421875 L 2.6875 12.421875 L 2.6875 9.40625 L 2.75 6.40625 L 12.421875 6.34375 L 22.078125 6.34375 L 22.078125 0.0625 C 21.992188 -0.0195312 18.726562 -0.0625 12.28125 -0.0625 L 2.5625 -0.0625 Z M 11.328125 -6.078125 L 22.015625 -6.078125 L 22.015625 -20.09375 L 16.703125 -20.09375 C 13.160156 -20.175781 11.390625 -20.175781 11.390625 -20.09375 C 11.347656 -20.050781 11.328125 -18.046875 11.328125 -14.078125 Z M 11.328125 -6.078125 "/></g></g></g><g fill="#000000" fill-opacity="1"><g transform="translate(165.545236, 139.370441)"><g><path d="M 2.75 -23.359375 L 2.75 -26.234375 L 30.140625 -26.234375 L 30.140625 0 L 16.390625 0.0625 L 2.5625 0.0625 L 2.5625 -8.1875 L 2.625 -16.3125 L 11.96875 -16.3125 C 18.195312 -16.3125 21.3125 -16.335938 21.3125 -16.390625 C 21.351562 -16.429688 21.375 -17.113281 21.375 -18.4375 C 21.375 -19.71875 21.351562 -20.378906 21.3125 -20.421875 L 2.8125 -20.421875 Z M 21.3125 -10.375 L 21.3125 -10.5 L 11.203125 -10.5 L 11.203125 -5.703125 L 16.25 -5.703125 L 21.375 -5.765625 L 21.375 -8 C 21.375 -9.445312 21.351562 -10.238281 21.3125 -10.375 Z M 21.3125 -10.375 "/></g></g></g><g fill="#000000" fill-opacity="1"><g transform="translate(198.24723, 139.370441)"><g><path d="M 2.625 0 L 2.625 -18.8125 C 2.625 -21.925781 2.625 -24.828125 2.625 -27.515625 C 2.625 -30.203125 2.625 -32.535156 2.625 -34.515625 C 2.625 -36.503906 2.613281 -38.085938 2.59375 -39.265625 C 2.570312 -40.441406 2.5625 -41.070312 2.5625 -41.15625 L 2.5625 -41.65625 L 7.109375 -41.65625 C 9.835938 -41.65625 11.203125 -41.632812 11.203125 -41.59375 L 11.203125 0 Z M 2.625 0 "/></g></g></g><g fill="#000000" fill-opacity="1"><g transform="translate(212.00638, 139.370441)"><g><path d="M 2.625 0 L 2.625 -18.8125 C 2.625 -21.925781 2.625 -24.828125 2.625 -27.515625 C 2.625 -30.203125 2.625 -32.535156 2.625 -34.515625 C 2.625 -36.503906 2.613281 -38.085938 2.59375 -39.265625 C 2.570312 -40.441406 2.5625 -41.070312 2.5625 -41.15625 L 2.5625 -41.65625 L 7.109375 -41.65625 C 9.835938 -41.65625 11.203125 -41.632812 11.203125 -41.59375 L 11.203125 0 Z M 2.625 0 "/></g></g></g><g fill="#000000" fill-opacity="1"><g transform="translate(225.76553, 139.370441)"><g><path d="M 2.5625 -13.0625 C 2.5625 -21.800781 2.582031 -26.191406 2.625 -26.234375 L 30.84375 -26.234375 L 30.84375 -9.59375 L 21.0625 -9.59375 L 11.265625 -9.53125 L 11.265625 -6.078125 L 30.90625 -6.078125 L 30.90625 0 L 2.5625 0 Z M 22.015625 -17.921875 L 22.015625 -20.15625 L 11.328125 -20.15625 C 11.285156 -20.113281 11.265625 -19.347656 11.265625 -17.859375 L 11.265625 -15.546875 L 16.640625 -15.546875 L 21.953125 -15.609375 Z M 22.015625 -17.921875 "/></g></g></g><g fill="#000000" fill-opacity="1"><g transform="translate(259.235491, 139.370441)"><g><path d="M 2.5625 -13.125 C 2.5625 -21.78125 2.582031 -26.128906 2.625 -26.171875 L 23.421875 -26.171875 L 23.484375 -23.171875 L 23.484375 -20.09375 L 11.390625 -20.09375 L 11.390625 -5.765625 C 11.390625 -4.054688 11.378906 -2.765625 11.359375 -1.890625 C 11.335938 -1.015625 11.328125 -0.535156 11.328125 -0.453125 L 11.328125 0 L 2.625 0 L 2.5625 -0.1875 Z M 2.5625 -13.125 "/></g></g></g><g fill="#000000" fill-opacity="1"><g transform="translate(284.001969, 139.370441)"><g><path d="M 0.3125 -26.234375 L 10.109375 -26.234375 L 18.046875 -10.6875 L 25.984375 -26.234375 L 35.84375 -26.234375 L 14.71875 12.484375 L 5.25 12.421875 L 13.1875 -2.375 Z M 0.3125 -26.234375 "/></g></g></g></svg>